<?xml version="1.0" encoding="UTF-8"?>
<!DOCTYPE svg PUBLIC "-//W3C//DTD SVG 1.1//EN" "http://www.w3.org/Graphics/SVG/1.1/DTD/svg11.dtd">
<svg xmlns="http://www.w3.org/2000/svg" version="1.1" width="584px" height="581px" style="shape-rendering:geometricPrecision; text-rendering:geometricPrecision; image-rendering:optimizeQuality; fill-rule:evenodd; clip-rule:evenodd" xmlns:xlink="http://www.w3.org/1999/xlink">
<g><path style="opacity:0.996" fill="#524744" d="M 268.5,3.5 C 332.227,-0.726379 391.227,13.7736 445.5,47C 459.326,62.2708 458.659,76.9375 443.5,91C 435.846,97.0341 427.18,99.0341 417.5,97C 337.193,50.1549 256.193,48.8216 174.5,93C 142.715,111.785 117.215,136.952 98,168.5C 94.1259,182.559 98.2926,193.392 110.5,201C 125.576,206.136 140.576,211.47 155.5,217C 164.121,222.459 168.788,230.293 169.5,240.5C 166.687,251.755 164.187,263.088 162,274.5C 157.384,331.768 179.217,375.601 227.5,406C 238.838,411.779 250.505,416.779 262.5,421C 266.818,424.315 269.985,428.481 272,433.5C 274.755,445.273 277.255,457.106 279.5,469C 277.933,485.234 269.099,494.067 253,495.5C 184.843,481.596 135.177,443.596 104,381.5C 88.282,347.194 81.6154,311.194 84,273.5C 82.6714,263.01 77.8381,254.51 69.5,248C 58.8716,243.012 47.8716,239.012 36.5,236C 24.5914,231.418 17.9247,222.752 16.5,210C 38.864,135.649 83.5307,78.982 150.5,40C 187.431,19.6311 226.765,7.46444 268.5,3.5 Z"/></g>
<g><path style="opacity:0.996" fill="#524744" d="M 284.5,82.5 C 331.168,81.6634 373.835,94.1634 412.5,120C 424.349,125.166 435.682,124.166 446.5,117C 455.761,107.714 465.761,99.3803 476.5,92C 489.157,87.733 499.99,90.5663 509,100.5C 572.006,175.86 593.34,261.86 573,358.5C 552.915,435.553 509.415,495.386 442.5,538C 434.731,543.302 426.231,546.802 417,548.5C 396.177,543.902 387.51,530.902 391,509.5C 392.355,504.62 394.855,500.453 398.5,497C 477.341,451.704 519.007,383.37 523.5,292C 522.803,255.712 514.636,221.212 499,188.5C 490.684,176.062 479.517,172.229 465.5,177C 451.875,187.622 438.542,198.622 425.5,210C 415.326,214.874 405.326,214.541 395.5,209C 353.921,162.81 303.587,149.476 244.5,169C 227.151,176.002 211.818,186.002 198.5,199C 190.464,203.763 182.131,204.43 173.5,201C 163.27,197.924 153.27,194.257 143.5,190C 132.305,180.703 129.472,169.203 135,155.5C 167.049,118.045 207.549,94.8779 256.5,86C 265.945,84.5001 275.278,83.3334 284.5,82.5 Z"/></g>
<g><path style="opacity:0.997" fill="#2aa0a5" d="M 280.5,207.5 C 315.953,204.684 343.787,217.684 364,246.5C 380.663,276.457 380.663,306.457 364,336.5C 339.869,369.802 307.703,381.636 267.5,372C 224.848,355.563 205.348,324.397 209,278.5C 217.467,239.199 241.3,215.533 280.5,207.5 Z"/></g>
<g><path style="opacity:0.996" fill="#524744" d="M 462.5,210.5 C 472.924,209.805 481.424,213.471 488,221.5C 513.262,297.521 500.595,366.521 450,428.5C 429.623,450.556 406.123,468.39 379.5,482C 370.875,488.918 366.541,497.918 366.5,509C 368.431,521.895 370.765,534.729 373.5,547.5C 372.538,558.607 367.205,566.774 357.5,572C 261.572,592.018 176.239,570.685 101.5,508C 34.0176,446.174 1.85093,369.341 5,277.5C 12.6657,260.426 25.499,254.926 43.5,261C 52.4275,264.26 58.2608,270.427 61,279.5C 60.5756,371.856 99.0756,442.356 176.5,491C 207.831,508.752 241.498,518.918 277.5,521.5C 297.72,519.754 306.553,508.754 304,488.5C 301.242,474.71 298.742,460.877 296.5,447C 297.199,435.264 302.866,426.93 313.5,422C 372.359,408.474 408.526,372.308 422,313.5C 424.528,293.688 423.694,274.022 419.5,254.5C 419.806,248.077 421.972,242.41 426,237.5C 433.167,231 440.333,224.5 447.5,218C 452.045,214.394 457.045,211.894 462.5,210.5 Z"/></g>
</svg>
